# xmcd
#
# Track frame offsets: 
#        150
#        23162
#        38206
#        55059
#        74032
#        85329
#        95802
#        116748
#        141781
#        171058
#        188782
#        201172
#        215389
#        236279
#        254468
#        273822
#        297506
#        316456
#        326728
#
# Disc length: 4622 seconds
#
# Revision: 0
# Processed by: cddbd v1.5.2PL0 Copyright (c) Steve Scherf et al.
# Submitted via: ExactAudioCopy v1.1
#
DISCID=23120c13
DTITLE=Various Artist - Het Allerbeste Uit Radio 1 Classics 1000 Van 2017 - C
DTITLE=D 2
DYEAR=2017
DGENRE=Easy Listening
TTITLE0=Arcade Fire - Rebellion (Lies)
TTITLE1=Patti Smith Group - Because The Night
TTITLE2=Nick Drake - Northern Sky
TTITLE3=Lou Reed - Walk On The Wild Side
TTITLE4=Jefferson Airplane - White Rabbit
TTITLE5=Elvis Presley - (You're The) Devil In Disguise
TTITLE6=Emerson, Lake and Palmer - Lucky Man
TTITLE7=Kevin Coyne - Sunday Morning Sunrise
TTITLE8=Jethro Tull - Aqualung
TTITLE9=The Temptations - Papa Was A Rollin' Stone
TTITLE10=Astrud Gilberto - The Girl From Ipanema
TTITLE11=Ennio Morricone - My Name Is Nobody
TTITLE12=John Hiatt - Perfectly Good Guitar
TTITLE13=The Allman Brothers Band - Jessica
TTITLE14=Joe Jackson - Is She Really Going Out With Him
TTITLE15=Gary Numan - Are 'Friends' Electric
TTITLE16=Eels - That Look You Give That Guy
TTITLE17=Louis Armstrong - What A Wonderful World
TTITLE18=Kate Bush - Wuthering Heights
EXTD=
EXTT0=
EXTT1=
EXTT2=
EXTT3=
EXTT4=
EXTT5=
EXTT6=
EXTT7=
EXTT8=
EXTT9=
EXTT10=
EXTT11=
EXTT12=
EXTT13=
EXTT14=
EXTT15=
EXTT16=
EXTT17=
EXTT18=
PLAYORDER=
